# xmcd
#
# Track frame offsets:
#	150
#	18793
#	34985
#	45051
#	61457
#	76545
#	92472
#	105007
#	123426
#	139091
#	153460
#	168011
#	182414
#	197025
#	210647
#	226164
#
# Disc length: 3238 seconds
#
# Revision: 2
# Processed by: cddbd v1.5.2PL0 Copyright (c) Steve Scherf et al.
# Submitted via: audiograbber 1.83.01
#
DISCID=ae0ca410
DTITLE=Various Artist - CDX 532
DYEAR=2011
DGENRE=Country
TTITLE0=Brent Anderson - Amy's Song 
TTITLE1=Her and Kings County - White Trash (Country Boy)
TTITLE2=Burns and Poe - I Need A Job
TTITLE3=Corey Smith - Maybe Next Year
TTITLE4=Sunny Ledfurd - Place To Stay
TTITLE5=Vince Hatfield - Beautiful Girl
TTITLE6=Miss Jeanie - Cloud Of Dust
TTITLE7=Thomas-Marx - Barney Fife
TTITLE8=Taylor Made - Good Love 
TTITLE9=Claudia Lee - Hollywood Sunset 
TTITLE10=Corey Wagar - I Hate My Boyfriend  
TTITLE11=Alexandra Demetree - Pick Me Up 
TTITLE12=Hannah Belle - Porchin' It
TTITLE13=Erin Duvall - Speak for Me
TTITLE14=Bobby Dean - White Lightning or Pink Champagne
TTITLE15=Robbie Carrico - If Only
EXTD=
EXTT0=
EXTT1=
EXTT2=
EXTT3=
EXTT4=
EXTT5=
EXTT6=
EXTT7=
EXTT8=
EXTT9=
EXTT10=
EXTT11=
EXTT12=
EXTT13=
EXTT14=
EXTT15=
PLAYORDER=
